<?xml version="1.0" encoding="UTF-8"?>
<svg id="Capa_2" data-name="Capa 2" xmlns="http://www.w3.org/2000/svg" viewBox="0 0 94.25 83.01">
  <defs>
    <style>
      .cls-1 {
        fill: none;
      }

      .cls-2 {
        fill: #6220bf;
      }

      .cls-3 {
        fill: #191713;
      }

      .cls-4 {
        fill: #d9dbeb;
      }
    </style>
  </defs>
  <g id="Cuentas_streaming" data-name="Cuentas streaming">
    <g>
      <path class="cls-1" d="M31.6,17.66c-2.04-1-4.6-1.5-7.67-1.5h-13.86v24.24h13.95c3.04,0,5.58-.48,7.63-1.45,1.48-.7,2.69-1.63,3.64-2.77v-15.67c-.97-1.17-2.19-2.12-3.69-2.85Z"/>
      <path class="cls-1" d="M35.29,47.75v-.57c-.08.03-.17.06-.26.09l.26.47Z"/>
      <path class="cls-2" d="M92.78,37.94L43.9,1.49c-3.18-3.18-8.61-.93-8.61,3.57v4.21c.69.26,1.36.54,1.99.86,3.44,1.73,6.07,4.16,7.87,7.29,1.8,3.13,2.71,6.78,2.71,10.96s-.93,7.81-2.8,10.91c-1.86,3.1-4.55,5.49-8.07,7.18-.55.26-1.12.5-1.7.72v.57l14.27,26.42h-11.36l-2.91-5.48v9.27c0,4.49,5.43,6.74,8.61,3.57l48.88-36.45c1.97-1.97,1.97-5.16,0-7.13Z"/>
      <path class="cls-3" d="M37.84,28.37c0-2.5-.53-4.67-1.59-6.48-.28-.49-.61-.94-.97-1.37v15.67c.36-.43.7-.89.99-1.39,1.04-1.8,1.57-3.94,1.57-6.42Z"/>
      <path class="cls-4" d="M33.32,44.11h-11.09l2.58,4.86c3.85-.05,7.25-.62,10.21-1.7l-1.71-3.16Z"/>
      <path class="cls-3" d="M10.07,16.16v24.24h13.96c3.04,0,5.58-.49,7.62-1.46,1.48-.7,2.68-1.63,3.64-2.77v11c-.09.03-.17.06-.26.09l.26.48v20.93l-10.48-19.71c-.18,0-.35,0-.53,0h-14.22v25.18H0V7.53h24.7c4.03,0,7.56.59,10.59,1.74v11.25c-.97-1.17-2.2-2.12-3.68-2.85-2.04-1-4.6-1.5-7.68-1.5h-13.86Z"/>
      <polygon class="cls-1" points="49.56 74.17 35.29 47.75 35.29 68.69 38.2 74.17 49.56 74.17"/>
      <path class="cls-1" d="M36.25,21.88c1.06,1.82,1.59,3.98,1.59,6.48s-.52,4.61-1.57,6.42c-.29.5-.62.96-.99,1.39v11c.58-.22,1.16-.46,1.7-.72,3.52-1.68,6.21-4.08,8.07-7.18,1.86-3.1,2.8-6.74,2.8-10.91s-.9-7.83-2.71-10.96c-1.8-3.13-4.43-5.56-7.87-7.29-.64-.32-1.31-.6-1.99-.86v11.25c.36.43.68.88.97,1.37Z"/>
    </g>
  </g>
</svg>