<?xml version="1.0" encoding="UTF-8"?>
<svg id="Capa_2" data-name="Capa 2" xmlns="http://www.w3.org/2000/svg" viewBox="0 0 20.58 20.57">
  <defs>
    <style>
      .cls-1 {
        fill: #949494;
      }
    </style>
  </defs>
  <g id="Registrar_servicio" data-name="Registrar servicio">
    <path class="cls-1" d="M20.13,18.01c.59.59.59,1.54,0,2.12-.29.29-.67.44-1.06.44s-.76-.15-1.06-.44l-7.72-7.72-7.73,7.72c-.29.29-.68.44-1.06.44s-.77-.15-1.06-.44c-.59-.58-.59-1.53,0-2.12l7.73-7.72L.44,2.56C-.15,1.97-.15,1.02.44.44,1.03-.15,1.97-.15,2.56.44l7.73,7.73L18.01.44c.59-.59,1.54-.59,2.12,0,.59.58.59,1.53,0,2.12l-7.72,7.73,7.72,7.72Z"/>
  </g>
</svg>